<svg width="24" height="24" viewBox="0 0 24 24" fill="none" xmlns="http://www.w3.org/2000/svg">
<path d="M10.6221 15.8125C10.8329 15.8136 11.0361 15.7337 11.1897 15.5893L11.1901 15.5889L16.6838 10.3389L16.6838 10.339L16.6855 10.3373C16.8315 10.1868 16.9137 9.98577 16.9149 9.77611C16.9161 9.56646 16.8363 9.36445 16.692 9.21232C16.5477 9.06019 16.3503 8.96971 16.1408 8.9598C15.9314 8.94989 15.7263 9.02132 15.5683 9.15915L15.5683 9.15911L15.5663 9.16101L10.6219 13.873L8.43462 11.7868C8.3585 11.7087 8.26742 11.6466 8.16679 11.6044C8.06579 11.562 7.95726 11.5405 7.84772 11.5411C7.73819 11.5418 7.62992 11.5645 7.52941 11.6081C7.42891 11.6516 7.33824 11.715 7.26287 11.7945C7.1875 11.874 7.12898 11.9679 7.09083 12.0706C7.05267 12.1733 7.03567 12.2826 7.04085 12.392C7.04603 12.5014 7.07327 12.6087 7.12095 12.7073C7.16842 12.8054 7.23516 12.8931 7.3172 12.9649L10.0625 15.5884C10.0626 15.5885 10.0627 15.5886 10.0628 15.5887C10.1367 15.661 10.2242 15.7181 10.3202 15.7565C10.4162 15.7949 10.5188 15.8139 10.6221 15.8125ZM10.6221 15.8125C10.6223 15.8125 10.6226 15.8125 10.6228 15.8125L10.6219 15.75L10.6215 15.8125C10.6217 15.8125 10.6219 15.8125 10.6221 15.8125ZM6.61792 3.94514C8.211 2.88067 10.084 2.31251 11.9999 2.3125C14.5677 2.31744 17.0289 3.33968 18.8446 5.15538C20.6603 6.97109 21.6826 9.43232 21.6875 12.0001C21.6875 13.9161 21.1193 15.789 20.0549 17.3821C18.9904 18.9752 17.4774 20.2169 15.7072 20.9501C13.9371 21.6833 11.9893 21.8752 10.1101 21.5014C8.23088 21.1276 6.50473 20.2049 5.14991 18.8501C3.79509 17.4953 2.87244 15.7691 2.49865 13.8899C2.12485 12.0107 2.3167 10.0629 3.04992 8.29275C3.78315 6.52259 5.02482 5.00961 6.61792 3.94514Z" fill="#27AE60" stroke="#27AE60" stroke-width="0.125"/>
</svg>
