<svg width="20" height="20" viewBox="0 0 20 20" fill="none" xmlns="http://www.w3.org/2000/svg">
<path d="M19.75 10C19.7452 12.3821 18.8709 14.6805 17.2915 16.4636C15.712 18.2468 13.536 19.392 11.1719 19.6844C11.1191 19.6896 11.0659 19.6838 11.0154 19.6674C10.965 19.651 10.9186 19.6244 10.8789 19.5891C10.8393 19.5539 10.8074 19.5109 10.7852 19.4627C10.763 19.4146 10.751 19.3624 10.75 19.3094V12.25H13C13.1026 12.2502 13.2041 12.2294 13.2983 12.1888C13.3925 12.1482 13.4773 12.0887 13.5476 12.014C13.6179 11.9393 13.6721 11.851 13.7069 11.7546C13.7418 11.6581 13.7564 11.5555 13.75 11.4531C13.7334 11.2592 13.6439 11.0788 13.4995 10.9483C13.355 10.8178 13.1665 10.7469 12.9719 10.75H10.75V8.50001C10.75 8.10218 10.908 7.72065 11.1893 7.43935C11.4706 7.15804 11.8522 7.00001 12.25 7.00001H13.75C13.8526 7.00021 13.9541 6.97937 14.0483 6.93878C14.1425 6.89819 14.2273 6.83872 14.2976 6.76403C14.3679 6.68935 14.4221 6.60104 14.4569 6.50456C14.4918 6.40808 14.5064 6.30549 14.5 6.20313C14.4834 6.0092 14.3939 5.82878 14.2495 5.69828C14.105 5.56778 13.9165 5.49692 13.7219 5.50001H12.25C11.4544 5.50001 10.6913 5.81608 10.1287 6.37869C9.56607 6.9413 9.25 7.70436 9.25 8.50001V10.75H7C6.89744 10.7498 6.79592 10.7706 6.70173 10.8112C6.60754 10.8518 6.52268 10.9113 6.45238 10.986C6.38209 11.0607 6.32786 11.149 6.29305 11.2455C6.25824 11.3419 6.24359 11.4445 6.25 11.5469C6.26659 11.7408 6.35613 11.9212 6.50055 12.0517C6.64497 12.1822 6.83351 12.2531 7.02813 12.25H9.25V19.3094C9.25027 19.3619 9.23947 19.414 9.21833 19.4621C9.19718 19.5102 9.16615 19.5534 9.12726 19.5887C9.08836 19.6241 9.04247 19.6509 8.99255 19.6674C8.94263 19.6838 8.8898 19.6896 8.8375 19.6844C3.8875 19.0844 0.0625017 14.7813 0.259377 9.63438C0.369892 7.09262 1.46955 4.69472 3.32363 2.95254C5.1777 1.21036 7.63932 0.261906 10.183 0.309624C12.7268 0.357342 15.1511 1.39745 16.9385 3.20795C18.7259 5.01844 19.7349 7.45588 19.75 10Z" fill="white"/>
</svg>
