<svg width="115" height="115" viewBox="0 0 115 115" fill="none" xmlns="http://www.w3.org/2000/svg">
<path d="M57.5 0C25.7941 0 0 25.7943 0 57.5C0 89.2057 25.7941 115 57.5 115C89.2059 115 115 89.2057 115 57.5C115 25.7943 89.2059 0 57.5 0ZM57.5 108.032C29.6365 108.032 6.96761 85.3637 6.96761 57.5C6.96761 29.6363 29.6365 6.96767 57.5 6.96767C85.3635 6.96767 108.032 29.6363 108.032 57.5C108.032 85.3637 85.364 108.032 57.5 108.032Z" fill="#E62E2E"/>
<path d="M61.8012 57.4997L81.4573 30.3588C82.5861 28.8003 82.2377 26.6223 80.6793 25.4935C79.1204 24.3652 76.9432 24.7131 75.814 26.2715L57.4999 51.5605L39.1844 26.272C38.0556 24.7131 35.8771 24.3652 34.3191 25.494C32.7611 26.6227 32.4128 28.8008 33.541 30.3592L53.1976 57.5002L33.541 84.6416C32.4123 86.2 32.7607 88.3781 34.3191 89.5069C34.9369 89.9542 35.6513 90.1693 36.3601 90.1693C37.4387 90.1693 38.5029 89.6695 39.1844 88.7288L57.4999 63.4399L75.8154 88.7288C76.4968 89.6695 77.5606 90.1693 78.6396 90.1693C79.348 90.1693 80.0629 89.9542 80.6802 89.5069C82.2386 88.3781 82.587 86.2 81.4583 84.6416L61.8012 57.4997Z" fill="#E62E2E"/>
</svg>
