<svg width="22" height="19" viewBox="0 0 22 19" fill="none" xmlns="http://www.w3.org/2000/svg">
<path d="M21.0344 4.2844L18.2031 7.10628C17.6406 13.6594 12.1094 18.75 5.50001 18.75C4.14063 18.75 3.01563 18.5344 2.16251 18.1125C1.47813 17.7657 1.19688 17.4 1.12188 17.2875C1.05983 17.1933 1.01984 17.0862 1.0049 16.9744C0.989964 16.8625 1.00046 16.7488 1.0356 16.6415C1.07074 16.5343 1.12963 16.4364 1.20788 16.3551C1.28612 16.2737 1.3817 16.2111 1.48751 16.1719C1.50626 16.1625 3.71876 15.3188 5.15313 13.6969C4.26358 13.0635 3.48171 12.2912 2.83751 11.4094C1.55313 9.66565 0.193756 6.63753 1.00938 2.11878C1.03502 1.98444 1.09646 1.85952 1.18722 1.75721C1.27798 1.6549 1.39468 1.579 1.52501 1.53753C1.65574 1.49472 1.79574 1.48869 1.92967 1.52011C2.0636 1.55152 2.18632 1.61917 2.28438 1.71565C2.31251 1.75315 5.43438 4.82815 9.25001 5.8219V5.25003C9.25369 4.65538 9.37446 4.06728 9.60543 3.51932C9.8364 2.97135 10.173 2.47424 10.5961 2.05637C11.0192 1.63851 11.5205 1.30807 12.0713 1.08392C12.6221 0.85978 13.2116 0.746322 13.8063 0.750027C14.5867 0.761158 15.351 0.97426 16.0246 1.36857C16.6982 1.76288 17.2582 2.32495 17.65 3.00003H20.5C20.6481 2.99956 20.793 3.04294 20.9164 3.12469C21.0399 3.20644 21.1364 3.3229 21.1938 3.4594C21.2478 3.59793 21.2615 3.74894 21.2333 3.89493C21.2051 4.04093 21.1361 4.17596 21.0344 4.2844Z" fill="#67089E"/>
</svg>
