<svg width="20" height="20" viewBox="0 0 20 20" fill="none" xmlns="http://www.w3.org/2000/svg">
<path d="M19.75 10C19.7451 12.3821 18.8709 14.6805 17.2915 16.4637C15.712 18.2468 13.5359 19.3921 11.1718 19.6844C11.1191 19.6896 11.0658 19.6838 11.0154 19.6674C10.965 19.651 10.9185 19.6244 10.8789 19.5891C10.8393 19.5539 10.8074 19.5109 10.7852 19.4628C10.763 19.4146 10.751 19.3624 10.75 19.3094V12.25H13C13.1025 12.2502 13.204 12.2294 13.2982 12.1888C13.3924 12.1482 13.4773 12.0887 13.5476 12.014C13.6179 11.9394 13.6721 11.8511 13.7069 11.7546C13.7417 11.6581 13.7564 11.5555 13.75 11.4531C13.7334 11.2592 13.6438 11.0788 13.4994 10.9483C13.355 10.8178 13.1665 10.7469 12.9718 10.75H10.75V8.50002C10.75 8.1022 10.908 7.72067 11.1893 7.43936C11.4706 7.15806 11.8521 7.00002 12.25 7.00002H13.75C13.8525 7.00022 13.954 6.97939 14.0482 6.9388C14.1424 6.89821 14.2273 6.83873 14.2976 6.76405C14.3679 6.68936 14.4221 6.60105 14.4569 6.50458C14.4917 6.4081 14.5064 6.30551 14.5 6.20315C14.4834 6.00921 14.3938 5.82879 14.2494 5.69829C14.105 5.5678 13.9165 5.49694 13.7218 5.50002H12.25C11.4543 5.50002 10.6913 5.81609 10.1287 6.3787C9.56604 6.94131 9.24997 7.70437 9.24997 8.50002V10.75H6.99997C6.89741 10.7498 6.79589 10.7707 6.7017 10.8112C6.60751 10.8518 6.52265 10.9113 6.45235 10.986C6.38206 11.0607 6.32783 11.149 6.29302 11.2455C6.25821 11.3419 6.24356 11.4445 6.24997 11.5469C6.26656 11.7408 6.3561 11.9213 6.50052 12.0517C6.64494 12.1822 6.83348 12.2531 7.0281 12.25H9.24997V19.3094C9.25023 19.362 9.23944 19.414 9.2183 19.4621C9.19715 19.5103 9.16612 19.5534 9.12723 19.5888C9.08833 19.6241 9.04243 19.6509 8.99252 19.6674C8.9426 19.6839 8.88977 19.6897 8.83747 19.6844C3.88747 19.0844 0.0624712 14.7813 0.259346 9.6344C0.369861 7.09263 1.46952 4.69474 3.3236 2.95256C5.17767 1.21038 7.63929 0.261922 10.183 0.309639C12.7267 0.357357 15.151 1.39747 16.9385 3.20796C18.7259 5.01845 19.7349 7.4559 19.75 10Z" fill="#67089E"/>
</svg>
