<svg width="105" height="24" viewBox="0 0 105 24" fill="none" xmlns="http://www.w3.org/2000/svg">
<g clip-path="url(#clip0_4072_19756)">
<path d="M4.14474 13.5616L10.7083 6.31671H15.4313L8.4572 13.7903L15.727 23.6921H10.9908L5.47776 16.2669L4.09618 17.6613V23.6921H0V0.0351868H4.09618V13.5616H4.14474Z" fill="#FDB50B"/>
<path d="M36.795 18.4619H40.6264C40.3615 20.1114 39.5229 21.4487 38.1104 22.4692C36.6935 23.4897 34.9632 24 32.9107 24C30.302 24 28.2495 23.1994 26.7576 21.5982C25.2657 19.9971 24.5197 17.8109 24.5197 15.0308C24.5197 12.2771 25.2613 10.0689 26.7488 8.40617C28.2363 6.74341 30.2314 5.91643 32.743 5.91643C35.2104 5.91643 37.1702 6.70822 38.6136 8.2874C40.0614 9.86657 40.7853 11.978 40.7853 14.6217V15.9502H28.5938V16.1965C28.5938 17.5953 28.9911 18.7214 29.7856 19.5748C30.5801 20.4282 31.6483 20.8548 32.9858 20.8548C33.9303 20.8548 34.7425 20.6393 35.4267 20.2082C36.1241 19.7771 36.5787 19.1921 36.795 18.4619ZM32.7651 9.08358C31.6262 9.08358 30.6728 9.47508 29.9092 10.2581C29.1456 11.0411 28.7218 12.044 28.6336 13.2669H36.7774C36.7332 12.0308 36.3448 11.0279 35.6077 10.2493C34.8749 9.47068 33.9259 9.08358 32.7651 9.08358Z" fill="#FDB50B"/>
<path d="M49.6441 23.9384C47.4416 23.9384 45.6804 23.129 44.3738 21.5103C43.0629 19.8915 42.4096 17.7053 42.4096 14.9516C42.4096 12.2067 43.0629 10.0293 44.3738 8.41056C45.6848 6.79179 47.4416 5.98241 49.6441 5.98241C50.8712 5.98241 51.9615 6.27273 52.9105 6.85337C53.8595 7.43402 54.5701 8.21261 55.0424 9.19795H55.1396V0H59.2357V23.6569H55.2234V20.6877H55.1572C54.6761 21.6818 53.9478 22.4736 52.9767 23.0587C52.0056 23.6437 50.8933 23.9384 49.6441 23.9384ZM50.8801 9.34751C49.5647 9.34751 48.523 9.85337 47.755 10.8651C46.9869 11.8768 46.6029 13.2449 46.6029 14.9736C46.6029 16.7111 46.9825 18.0836 47.7461 19.0865C48.5097 20.0938 49.5514 20.5953 50.8801 20.5953C52.1734 20.5953 53.2106 20.085 53.9875 19.0689C54.7644 18.0528 55.1572 16.6848 55.1572 14.9692C55.1572 13.2625 54.7688 11.8988 53.9875 10.8783C53.2106 9.85777 52.1734 9.34751 50.8801 9.34751Z" fill="#FDB50B"/>
<path d="M73.334 18.4619H77.1654C76.9005 20.1114 76.0619 21.4487 74.6494 22.4692C73.2325 23.4897 71.5022 24 69.4497 24C66.841 24 64.7885 23.1994 63.2966 21.5982C61.8047 19.9971 61.0587 17.8109 61.0587 15.0308C61.0587 12.2771 61.8003 10.0689 63.2878 8.40617C64.7753 6.74341 66.7704 5.91643 69.282 5.91643C71.7494 5.91643 73.7092 6.70822 75.1526 8.2874C76.6004 9.86657 77.3243 11.978 77.3243 14.6217V15.9502H65.1328V16.1965C65.1328 17.5953 65.5301 18.7214 66.3246 19.5748C67.1191 20.4282 68.1873 20.8548 69.5248 20.8548C70.4693 20.8548 71.2815 20.6393 71.9657 20.2082C72.6631 19.7771 73.1177 19.1921 73.334 18.4619ZM69.3041 9.08358C68.1652 9.08358 67.2118 9.47508 66.4482 10.2581C65.6846 11.0411 65.2608 12.044 65.1726 13.2669H73.3164C73.2722 12.0308 72.8838 11.0279 72.1467 10.2493C71.4139 9.47068 70.4693 9.08358 69.3041 9.08358Z" fill="#FDB50B"/>
<path d="M80.5112 2.21701H84.6074V6.28153H87.8958V9.43109H84.6074V18.4663C84.6074 19.1745 84.7751 19.7023 85.1194 20.0411C85.4593 20.3798 85.9889 20.5513 86.7172 20.5513C87.1984 20.5513 87.5868 20.5249 87.887 20.4677V23.5821C87.3926 23.6921 86.6863 23.7449 85.7638 23.7449C83.879 23.7449 82.5328 23.3842 81.725 22.6628C80.9173 21.9414 80.5156 20.7361 80.5156 19.0381V9.43109H78.0173V6.28153H80.5156V2.21701H80.5112Z" fill="#FDB50B"/>
<path d="M101.01 18.4619H104.841C104.576 20.1114 103.738 21.4487 102.325 22.4692C100.908 23.4897 99.1779 24 97.1254 24C94.5168 24 92.4642 23.1994 90.9723 21.5982C89.4804 19.9971 88.7344 17.8109 88.7344 15.0308C88.7344 12.2771 89.476 10.0689 90.9635 8.40617C92.451 6.74341 94.4461 5.91643 96.9577 5.91643C99.4251 5.91643 101.385 6.70822 102.828 8.2874C104.276 9.86657 105 11.978 105 14.6217V15.9502H92.8085V16.1965C92.8085 17.5953 93.2058 18.7214 94.0003 19.5748C94.7948 20.4282 95.863 20.8548 97.2005 20.8548C98.1451 20.8548 98.9572 20.6393 99.6414 20.2082C100.334 19.7771 100.789 19.1921 101.01 18.4619ZM96.9798 9.08358C95.841 9.08358 94.8875 9.47508 94.1239 10.2581C93.3603 11.0411 92.9365 12.044 92.8483 13.2669H100.992C100.948 12.0308 100.56 11.0279 99.8224 10.2493C99.0897 9.47068 98.1406 9.08358 96.9798 9.08358Z" fill="#FDB50B"/>
<path d="M24.3917 6.14956V9.84018C23.9856 9.68622 23.4339 9.61144 22.7276 9.61144C21.5668 9.61144 20.6575 9.95895 19.9998 10.6584C19.3421 11.3578 19.0111 12.3167 19.0111 13.544V23.6569H18.9581L14.9149 18.022L11.8781 13.7903L14.9149 10.5484L18.8477 6.34751V9.31672H18.9316C19.2273 8.2566 19.7394 7.43842 20.4721 6.85777C21.2004 6.27713 22.0788 5.9912 23.1117 5.9912C23.4692 5.9868 23.8974 6.04399 24.3917 6.14956Z" fill="#FDB50B"/>
</g>
<defs>
<clipPath id="clip0_4072_19756">
<rect width="105" height="24" fill="white"/>
</clipPath>
</defs>
</svg>
