<svg width="105" height="24" viewBox="0 0 105 24" fill="none" xmlns="http://www.w3.org/2000/svg">
<g clip-path="url(#clip0_4971_47608)">
<path d="M4.14474 13.5615L10.7083 6.31668H15.4313L8.4572 13.7903L15.727 23.692H10.9908L5.47776 16.2668L4.09618 17.6613V23.692H0V0.0351562H4.09618V13.5615H4.14474Z" fill="#67089E"/>
<path d="M36.795 18.462H40.6264C40.3615 20.1115 39.5229 21.4488 38.1104 22.4693C36.6935 23.4898 34.9632 24.0001 32.9107 24.0001C30.302 24.0001 28.2495 23.1995 26.7576 21.5983C25.2657 19.9972 24.5197 17.8109 24.5197 15.0309C24.5197 12.2772 25.2613 10.069 26.7488 8.40624C28.2363 6.74349 30.2314 5.9165 32.743 5.9165C35.2104 5.9165 37.1702 6.70829 38.6136 8.28747C40.0614 9.86665 40.7853 11.9781 40.7853 14.6218V15.9502H28.5938V16.1966C28.5938 17.5954 28.9911 18.7215 29.7856 19.5749C30.5801 20.4282 31.6483 20.8549 32.9858 20.8549C33.9303 20.8549 34.7425 20.6394 35.4267 20.2083C36.1241 19.7772 36.5787 19.1922 36.795 18.462ZM32.7651 9.08366C31.6262 9.08366 30.6728 9.47516 29.9092 10.2582C29.1456 11.0411 28.7218 12.0441 28.6336 13.2669H36.7774C36.7332 12.0309 36.3448 11.0279 35.6077 10.2494C34.8749 9.47076 33.9259 9.08366 32.7651 9.08366Z" fill="#67089E"/>
<path d="M49.6441 23.9384C47.4416 23.9384 45.6804 23.129 44.3738 21.5103C43.0629 19.8915 42.4096 17.7053 42.4096 14.9516C42.4096 12.2067 43.0629 10.0293 44.3738 8.41055C45.6848 6.79179 47.4416 5.98241 49.6441 5.98241C50.8712 5.98241 51.9615 6.27273 52.9105 6.85337C53.8595 7.43402 54.5701 8.21261 55.0424 9.19795H55.1396V0H59.2357V23.6569H55.2234V20.6877H55.1572C54.6761 21.6818 53.9478 22.4736 52.9767 23.0587C52.0056 23.6437 50.8933 23.9384 49.6441 23.9384ZM50.8801 9.34751C49.5647 9.34751 48.523 9.85337 47.755 10.8651C46.9869 11.8768 46.6029 13.2449 46.6029 14.9736C46.6029 16.7111 46.9825 18.0836 47.7461 19.0865C48.5097 20.0938 49.5514 20.5953 50.8801 20.5953C52.1734 20.5953 53.2106 20.085 53.9875 19.0689C54.7644 18.0528 55.1572 16.6847 55.1572 14.9692C55.1572 13.2625 54.7688 11.8988 53.9875 10.8783C53.2106 9.85777 52.1734 9.34751 50.8801 9.34751Z" fill="#67089E"/>
<path d="M73.334 18.462H77.1654C76.9005 20.1115 76.0619 21.4488 74.6494 22.4693C73.2325 23.4898 71.5022 24.0001 69.4497 24.0001C66.841 24.0001 64.7885 23.1995 63.2966 21.5983C61.8047 19.9972 61.0587 17.8109 61.0587 15.0309C61.0587 12.2772 61.8003 10.069 63.2878 8.40624C64.7753 6.74349 66.7704 5.9165 69.282 5.9165C71.7494 5.9165 73.7092 6.70829 75.1526 8.28747C76.6004 9.86665 77.3243 11.9781 77.3243 14.6218V15.9502H65.1328V16.1966C65.1328 17.5954 65.5301 18.7215 66.3246 19.5749C67.1191 20.4282 68.1873 20.8549 69.5248 20.8549C70.4693 20.8549 71.2815 20.6394 71.9657 20.2083C72.6631 19.7772 73.1177 19.1922 73.334 18.462ZM69.3041 9.08366C68.1652 9.08366 67.2118 9.47516 66.4482 10.2582C65.6846 11.0411 65.2608 12.0441 65.1726 13.2669H73.3164C73.2722 12.0309 72.8838 11.0279 72.1467 10.2494C71.4139 9.47076 70.4693 9.08366 69.3041 9.08366Z" fill="#67089E"/>
<path d="M80.5112 2.21704H84.6074V6.28156H87.8958V9.43112H84.6074V18.4663C84.6074 19.1745 84.7751 19.7024 85.1194 20.0411C85.4593 20.3798 85.9889 20.5514 86.7172 20.5514C87.1984 20.5514 87.5868 20.525 87.887 20.4678V23.5821C87.3926 23.6921 86.6863 23.7449 85.7638 23.7449C83.879 23.7449 82.5328 23.3842 81.725 22.6628C80.9173 21.9414 80.5156 20.7361 80.5156 19.0382V9.43112H78.0173V6.28156H80.5156V2.21704H80.5112Z" fill="#67089E"/>
<path d="M101.01 18.462H104.841C104.576 20.1115 103.738 21.4488 102.325 22.4693C100.908 23.4898 99.1779 24.0001 97.1254 24.0001C94.5168 24.0001 92.4642 23.1995 90.9723 21.5983C89.4804 19.9972 88.7344 17.8109 88.7344 15.0309C88.7344 12.2772 89.476 10.069 90.9635 8.40624C92.451 6.74349 94.4461 5.9165 96.9577 5.9165C99.4251 5.9165 101.385 6.70829 102.828 8.28747C104.276 9.86665 105 11.9781 105 14.6218V15.9502H92.8085V16.1966C92.8085 17.5954 93.2058 18.7215 94.0003 19.5749C94.7948 20.4282 95.863 20.8549 97.2005 20.8549C98.1451 20.8549 98.9572 20.6394 99.6414 20.2083C100.334 19.7772 100.789 19.1922 101.01 18.462ZM96.9798 9.08366C95.841 9.08366 94.8875 9.47516 94.1239 10.2582C93.3603 11.0411 92.9365 12.0441 92.8483 13.2669H100.992C100.948 12.0309 100.56 11.0279 99.8224 10.2494C99.0897 9.47076 98.1406 9.08366 96.9798 9.08366Z" fill="#67089E"/>
<path d="M24.3917 6.14956V9.84018C23.9856 9.68622 23.4339 9.61144 22.7276 9.61144C21.5668 9.61144 20.6575 9.95895 19.9998 10.6584C19.3421 11.3578 19.0111 12.3167 19.0111 13.544V23.6569H18.9581L14.9149 18.022L11.8781 13.7903L14.9149 10.5484L18.8477 6.34751V9.31672H18.9316C19.2273 8.2566 19.7394 7.43842 20.4721 6.85777C21.2004 6.27713 22.0788 5.9912 23.1117 5.9912C23.4692 5.9868 23.8974 6.04399 24.3917 6.14956Z" fill="#FDB50B"/>
</g>
<defs>
<clipPath id="clip0_4971_47608">
<rect width="105" height="24" fill="white"/>
</clipPath>
</defs>
</svg>
