<svg width="24" height="24" viewBox="0 0 24 24" fill="none" xmlns="http://www.w3.org/2000/svg">
<path opacity="0.2" d="M14.25 15H18C18.9946 15 19.9484 14.6049 20.6517 13.9017C21.3549 13.1984 21.75 12.2446 21.75 11.25C21.75 10.2554 21.3549 9.30161 20.6517 8.59835C19.9484 7.89509 18.9946 7.5 18 7.5H14.25V15Z" fill="#222121"/>
<path d="M14.25 7.5V19.0969C14.2489 19.2215 14.2792 19.3444 14.3382 19.4542C14.3972 19.564 14.483 19.6572 14.5875 19.725L15.6188 20.4094C15.7187 20.4761 15.8331 20.5178 15.9525 20.531C16.0719 20.5443 16.1928 20.5287 16.3049 20.4855C16.4169 20.4423 16.517 20.3728 16.5967 20.2829C16.6763 20.193 16.7332 20.0852 16.7625 19.9688L18 15" stroke="#222121" stroke-width="2" stroke-linecap="round" stroke-linejoin="round"/>
<path d="M18 15C18.9946 15 19.9484 14.6049 20.6517 13.9016C21.3549 13.1984 21.75 12.2446 21.75 11.25C21.75 10.2554 21.3549 9.30161 20.6517 8.59835C19.9484 7.89508 18.9946 7.5 18 7.5H14.25C14.25 7.5 9.14062 7.5 4.22812 3.38437C4.11886 3.29395 3.9862 3.23637 3.84553 3.2183C3.70486 3.20023 3.56195 3.22242 3.43338 3.28229C3.30481 3.34215 3.19585 3.43725 3.11914 3.55654C3.04244 3.67583 3.00112 3.81443 3 3.95625V18.5437C3.00112 18.6856 3.04244 18.8242 3.11914 18.9435C3.19585 19.0627 3.30481 19.1578 3.43338 19.2177C3.56195 19.2776 3.70486 19.2998 3.84553 19.2817C3.9862 19.2636 4.11886 19.206 4.22812 19.1156C9.14062 15 14.25 15 14.25 15H18Z" stroke="#222121" stroke-width="2" stroke-linecap="round" stroke-linejoin="round"/>
</svg>
