<svg width="720" height="230" viewBox="0 0 720 230" fill="none" xmlns="http://www.w3.org/2000/svg">
<g clip-path="url(#clip0_4397_23269)">
<path d="M-1 74V0H43.4V29.6C43.4 35.4307 42.2516 41.2043 40.0202 46.5911C37.7889 51.978 34.5185 56.8726 30.3955 60.9955C22.0689 69.3222 10.7756 74 -1 74H-1Z" fill="#E1CEEC"/>
<path d="M58.0549 28.0882C61.3689 28.0882 64.0555 25.4016 64.0555 22.0876C64.0555 18.7735 61.3689 16.0869 58.0549 16.0869C54.7408 16.0869 52.0542 18.7735 52.0542 22.0876C52.0542 25.4016 54.7408 28.0882 58.0549 28.0882Z" fill="#CE7C54"/>
<path d="M58.0549 57.9132C61.3689 57.9132 64.0555 55.2266 64.0555 51.9125C64.0555 48.5985 61.3689 45.9119 58.0549 45.9119C54.7408 45.9119 52.0542 48.5985 52.0542 51.9125C52.0542 55.2266 54.7408 57.9132 58.0549 57.9132Z" fill="#CE7C54"/>
<g clip-path="url(#clip1_4397_23269)">
<path d="M109.999 74C100.186 74 90.7744 70.1018 83.8356 63.1629C76.8967 56.2241 72.9985 46.813 72.9985 37V0H146.999V37C146.999 46.813 143.1 56.2241 136.161 63.1629C129.223 70.1018 119.812 74 109.999 74Z" fill="#FDB50B"/>
</g>
<g clip-path="url(#clip2_4397_23269)">
<path d="M73 147.999C73 138.186 69.1018 128.775 62.1629 121.836C55.2241 114.897 45.813 110.999 36 110.999C26.187 110.999 16.7759 114.897 9.83705 121.836C2.8982 128.775 -1 138.186 -1 147.999H73Z" fill="#FEE6AE"/>
</g>
<g clip-path="url(#clip3_4397_23269)">
<path d="M146.999 110.999C146.999 101.186 143.1 91.7746 136.161 84.8357C129.223 77.8969 119.812 73.9987 109.999 73.9987C100.186 73.9987 90.7744 77.8969 83.8356 84.8357C76.8967 91.7746 72.9985 101.186 72.9985 110.999H146.999Z" fill="#450569"/>
<path d="M146.999 147.999C146.999 138.186 143.1 128.775 136.161 121.836C129.223 114.897 119.812 110.999 109.999 110.999C100.186 110.999 90.7744 114.897 83.8356 121.836C76.8967 128.775 72.9985 138.186 72.9985 147.999H146.999Z" fill="#450569"/>
</g>
<g clip-path="url(#clip4_4397_23269)">
<path d="M146.997 74V0H191.397V29.6C191.397 35.4307 190.249 41.2043 188.018 46.5911C185.786 51.978 182.516 56.8726 178.393 60.9955C170.066 69.3222 158.773 74 146.997 74V74Z" fill="#E1CEEC"/>
<path d="M206.052 28.0882C209.366 28.0882 212.053 25.4016 212.053 22.0876C212.053 18.7735 209.366 16.0869 206.052 16.0869C202.738 16.0869 200.052 18.7735 200.052 22.0876C200.052 25.4016 202.738 28.0882 206.052 28.0882Z" fill="#CE7C54"/>
<path d="M206.052 57.9132C209.366 57.9132 212.053 55.2266 212.053 51.9125C212.053 48.5985 209.366 45.9119 206.052 45.9119C202.738 45.9119 200.052 48.5985 200.052 51.9125C200.052 55.2266 202.738 57.9132 206.052 57.9132Z" fill="#CE7C54"/>
</g>
<g clip-path="url(#clip5_4397_23269)">
<path d="M258.003 74C248.19 74 238.779 70.1018 231.84 63.1629C224.901 56.2241 221.003 46.813 221.003 37V0H295.003V37C295.003 46.813 291.104 56.2241 284.166 63.1629C277.227 70.1018 267.816 74 258.003 74Z" fill="#FDB50B"/>
</g>
<g clip-path="url(#clip6_4397_23269)">
<path d="M220.997 147.999C220.997 138.186 217.099 128.775 210.16 121.836C203.221 114.897 193.81 110.999 183.997 110.999C174.184 110.999 164.773 114.897 157.834 121.836C150.896 128.775 146.997 138.186 146.997 147.999H220.997Z" fill="#FEE6AE"/>
</g>
<g clip-path="url(#clip7_4397_23269)">
<path d="M295.003 110.999C295.003 101.186 291.104 91.7746 284.166 84.8357C277.227 77.8969 267.816 73.9987 258.003 73.9987C248.19 73.9987 238.779 77.8969 231.84 84.8357C224.901 91.7746 221.003 101.186 221.003 110.999H295.003Z" fill="#450569"/>
<path d="M295.003 147.999C295.003 138.186 291.104 128.775 284.166 121.836C277.227 114.897 267.816 110.999 258.003 110.999C248.19 110.999 238.779 114.897 231.84 121.836C224.901 128.775 221.003 138.186 221.003 147.999H295.003Z" fill="#450569"/>
</g>
<g clip-path="url(#clip8_4397_23269)">
<path d="M295.001 74V0H339.401V29.6C339.401 35.4307 338.253 41.2043 336.022 46.5911C333.79 51.978 330.52 56.8726 326.397 60.9955C318.07 69.3222 306.777 74 295.001 74V74Z" fill="#E1CEEC"/>
<path d="M354.056 28.0882C357.37 28.0882 360.057 25.4016 360.057 22.0876C360.057 18.7735 357.37 16.0869 354.056 16.0869C350.742 16.0869 348.056 18.7735 348.056 22.0876C348.056 25.4016 350.742 28.0882 354.056 28.0882Z" fill="#CE7C54"/>
<path d="M354.056 57.9132C357.37 57.9132 360.057 55.2266 360.057 51.9125C360.057 48.5985 357.37 45.9119 354.056 45.9119C350.742 45.9119 348.056 48.5985 348.056 51.9125C348.056 55.2266 350.742 57.9132 354.056 57.9132Z" fill="#CE7C54"/>
</g>
<g clip-path="url(#clip9_4397_23269)">
<path d="M406 74C396.187 74 386.776 70.1018 379.837 63.1629C372.898 56.2241 369 46.813 369 37V0H443V37C443 46.813 439.102 56.2241 432.163 63.1629C425.224 70.1018 415.813 74 406 74Z" fill="#FDB50B"/>
</g>
<g clip-path="url(#clip10_4397_23269)">
<path d="M369.001 147.999C369.001 138.186 365.103 128.775 358.164 121.836C351.226 114.897 341.814 110.999 332.001 110.999C322.188 110.999 312.777 114.897 305.839 121.836C298.9 128.775 295.001 138.186 295.001 147.999H369.001Z" fill="#FEE6AE"/>
</g>
<g clip-path="url(#clip11_4397_23269)">
<path d="M443 110.999C443 101.186 439.102 91.7746 432.163 84.8357C425.224 77.8969 415.813 73.9987 406 73.9987C396.187 73.9987 386.776 77.8969 379.837 84.8357C372.898 91.7746 369 101.186 369 110.999H443Z" fill="#450569"/>
<path d="M443 147.999C443 138.186 439.102 128.775 432.163 121.836C425.224 114.897 415.813 110.999 406 110.999C396.187 110.999 386.776 114.897 379.837 121.836C372.898 128.775 369 138.186 369 147.999H443Z" fill="#450569"/>
</g>
<g clip-path="url(#clip12_4397_23269)">
<path d="M442.999 74V0H487.399V29.6C487.399 35.4307 486.25 41.2043 484.019 46.5911C481.787 51.978 478.517 56.8726 474.394 60.9955C466.067 69.3222 454.774 74 442.999 74V74Z" fill="#E1CEEC"/>
<path d="M502.053 28.0882C505.367 28.0882 508.054 25.4016 508.054 22.0876C508.054 18.7735 505.367 16.0869 502.053 16.0869C498.739 16.0869 496.053 18.7735 496.053 22.0876C496.053 25.4016 498.739 28.0882 502.053 28.0882Z" fill="#CE7C54"/>
<path d="M502.053 57.9132C505.367 57.9132 508.054 55.2266 508.054 51.9125C508.054 48.5985 505.367 45.9119 502.053 45.9119C498.739 45.9119 496.053 48.5985 496.053 51.9125C496.053 55.2266 498.739 57.9132 502.053 57.9132Z" fill="#CE7C54"/>
</g>
<g clip-path="url(#clip13_4397_23269)">
<path d="M553.997 74C544.184 74 534.773 70.1018 527.834 63.1629C520.895 56.2241 516.997 46.813 516.997 37V0H590.997V37C590.997 46.813 587.099 56.2241 580.16 63.1629C573.221 70.1018 563.81 74 553.997 74Z" fill="#FDB50B"/>
</g>
<g clip-path="url(#clip14_4397_23269)">
<path d="M516.999 147.999C516.999 138.186 513.1 128.775 506.161 121.836C499.223 114.897 489.812 110.999 479.999 110.999C470.186 110.999 460.774 114.897 453.836 121.836C446.897 128.775 442.999 138.186 442.999 147.999H516.999Z" fill="#FEE6AE"/>
</g>
<g clip-path="url(#clip15_4397_23269)">
<path d="M590.997 110.999C590.997 101.186 587.099 91.7746 580.16 84.8357C573.221 77.8969 563.81 73.9987 553.997 73.9987C544.184 73.9987 534.773 77.8969 527.834 84.8357C520.895 91.7746 516.997 101.186 516.997 110.999H590.997Z" fill="#450569"/>
<path d="M590.997 147.999C590.997 138.186 587.099 128.775 580.16 121.836C573.221 114.897 563.81 110.999 553.997 110.999C544.184 110.999 534.773 114.897 527.834 121.836C520.895 128.775 516.997 138.186 516.997 147.999H590.997Z" fill="#450569"/>
</g>
<g clip-path="url(#clip16_4397_23269)">
<path d="M591.003 74V0H635.403V29.6C635.403 35.4307 634.254 41.2043 632.023 46.5911C629.792 51.978 626.521 56.8726 622.398 60.9955C614.072 69.3222 602.779 74 591.003 74V74Z" fill="#E1CEEC"/>
<path d="M650.058 28.0882C653.372 28.0882 656.058 25.4016 656.058 22.0876C656.058 18.7735 653.372 16.0869 650.058 16.0869C646.744 16.0869 644.057 18.7735 644.057 22.0876C644.057 25.4016 646.744 28.0882 650.058 28.0882Z" fill="#CE7C54"/>
<path d="M650.058 57.9132C653.372 57.9132 656.058 55.2266 656.058 51.9125C656.058 48.5985 653.372 45.9119 650.058 45.9119C646.744 45.9119 644.057 48.5985 644.057 51.9125C644.057 55.2266 646.744 57.9132 650.058 57.9132Z" fill="#CE7C54"/>
</g>
<g clip-path="url(#clip17_4397_23269)">
<path d="M702.001 74C692.188 74 682.777 70.1018 675.839 63.1629C668.9 56.2241 665.001 46.813 665.001 37V0H739.001V37C739.001 46.813 735.103 56.2241 728.164 63.1629C721.226 70.1018 711.814 74 702.001 74Z" fill="#FDB50B"/>
</g>
<g clip-path="url(#clip18_4397_23269)">
<path d="M665.003 147.999C665.003 138.186 661.105 128.775 654.166 121.836C647.227 114.897 637.816 110.999 628.003 110.999C618.19 110.999 608.779 114.897 601.84 121.836C594.901 128.775 591.003 138.186 591.003 147.999H665.003Z" fill="#FEE6AE"/>
</g>
<g clip-path="url(#clip19_4397_23269)">
<path d="M739.001 110.999C739.001 101.186 735.103 91.7746 728.164 84.8357C721.226 77.8969 711.814 73.9987 702.001 73.9987C692.188 73.9987 682.777 77.8969 675.839 84.8357C668.9 91.7746 665.001 101.186 665.001 110.999H739.001Z" fill="#450569"/>
<path d="M739.001 147.999C739.001 138.186 735.103 128.775 728.164 121.836C721.226 114.897 711.814 110.999 702.001 110.999C692.188 110.999 682.777 114.897 675.839 121.836C668.9 128.775 665.001 138.186 665.001 147.999H739.001Z" fill="#450569"/>
</g>
<g clip-path="url(#clip20_4397_23269)">
<path d="M-1 221.997V147.997H43.4V177.597C43.4 183.428 42.2516 189.202 40.0202 194.588C37.7889 199.975 34.5185 204.87 30.3955 208.993C22.0689 217.319 10.7756 221.997 -1 221.997H-1Z" fill="#E1CEEC"/>
<path d="M58.0549 176.086C61.3689 176.086 64.0555 173.399 64.0555 170.085C64.0555 166.771 61.3689 164.084 58.0549 164.084C54.7408 164.084 52.0542 166.771 52.0542 170.085C52.0542 173.399 54.7408 176.086 58.0549 176.086Z" fill="#CE7C54"/>
<path d="M58.0549 205.911C61.3689 205.911 64.0555 203.224 64.0555 199.91C64.0555 196.596 61.3689 193.909 58.0549 193.909C54.7408 193.909 52.0542 196.596 52.0542 199.91C52.0542 203.224 54.7408 205.911 58.0549 205.911Z" fill="#CE7C54"/>
</g>
<g clip-path="url(#clip21_4397_23269)">
<path d="M109.999 221.997C100.186 221.997 90.7744 218.099 83.8356 211.16C76.8967 204.221 72.9985 194.81 72.9985 184.997V147.997H146.999V184.997C146.999 194.81 143.1 204.221 136.161 211.16C129.223 218.099 119.812 221.997 109.999 221.997Z" fill="#FDB50B"/>
</g>
<g clip-path="url(#clip22_4397_23269)">
<path d="M146.999 259.003C146.999 249.19 143.1 239.779 136.161 232.84C129.223 225.901 119.812 222.003 109.999 222.003C100.186 222.003 90.7744 225.901 83.8356 232.84C76.8967 239.779 72.9985 249.19 72.9985 259.003H146.999Z" fill="#450569"/>
</g>
<g clip-path="url(#clip23_4397_23269)">
<path d="M146.997 221.997V147.997H191.397V177.597C191.397 183.428 190.249 189.202 188.018 194.588C185.786 199.975 182.516 204.87 178.393 208.993C170.066 217.319 158.773 221.997 146.997 221.997V221.997Z" fill="#E1CEEC"/>
<path d="M206.052 176.086C209.366 176.086 212.053 173.399 212.053 170.085C212.053 166.771 209.366 164.084 206.052 164.084C202.738 164.084 200.052 166.771 200.052 170.085C200.052 173.399 202.738 176.086 206.052 176.086Z" fill="#CE7C54"/>
<path d="M206.052 205.911C209.366 205.911 212.053 203.224 212.053 199.91C212.053 196.596 209.366 193.909 206.052 193.909C202.738 193.909 200.052 196.596 200.052 199.91C200.052 203.224 202.738 205.911 206.052 205.911Z" fill="#CE7C54"/>
</g>
<g clip-path="url(#clip24_4397_23269)">
<path d="M258.003 221.997C248.19 221.997 238.779 218.099 231.84 211.16C224.901 204.221 221.003 194.81 221.003 184.997V147.997H295.003V184.997C295.003 194.81 291.104 204.221 284.166 211.16C277.227 218.099 267.816 221.997 258.003 221.997Z" fill="#FDB50B"/>
</g>
<g clip-path="url(#clip25_4397_23269)">
<path d="M295.003 259.003C295.003 249.19 291.104 239.779 284.166 232.84C277.227 225.901 267.816 222.003 258.003 222.003C248.19 222.003 238.779 225.901 231.84 232.84C224.901 239.779 221.003 249.19 221.003 259.003H295.003Z" fill="#450569"/>
</g>
<g clip-path="url(#clip26_4397_23269)">
<path d="M295.001 221.997V147.997H339.401V177.597C339.401 183.428 338.253 189.202 336.022 194.588C333.79 199.975 330.52 204.87 326.397 208.993C318.07 217.319 306.777 221.997 295.001 221.997V221.997Z" fill="#E1CEEC"/>
<path d="M354.056 176.086C357.37 176.086 360.057 173.399 360.057 170.085C360.057 166.771 357.37 164.084 354.056 164.084C350.742 164.084 348.056 166.771 348.056 170.085C348.056 173.399 350.742 176.086 354.056 176.086Z" fill="#CE7C54"/>
<path d="M354.056 205.911C357.37 205.911 360.057 203.224 360.057 199.91C360.057 196.596 357.37 193.909 354.056 193.909C350.742 193.909 348.056 196.596 348.056 199.91C348.056 203.224 350.742 205.911 354.056 205.911Z" fill="#CE7C54"/>
</g>
<g clip-path="url(#clip27_4397_23269)">
<path d="M406 221.997C396.187 221.997 386.776 218.099 379.837 211.16C372.898 204.221 369 194.81 369 184.997V147.997H443V184.997C443 194.81 439.102 204.221 432.163 211.16C425.224 218.099 415.813 221.997 406 221.997Z" fill="#FDB50B"/>
</g>
<g clip-path="url(#clip28_4397_23269)">
<path d="M443 259.003C443 249.19 439.102 239.779 432.163 232.84C425.224 225.901 415.813 222.003 406 222.003C396.187 222.003 386.776 225.901 379.837 232.84C372.898 239.779 369 249.19 369 259.003H443Z" fill="#450569"/>
</g>
<g clip-path="url(#clip29_4397_23269)">
<path d="M442.999 221.997V147.997H487.399V177.597C487.399 183.428 486.25 189.202 484.019 194.588C481.787 199.975 478.517 204.87 474.394 208.993C466.067 217.319 454.774 221.997 442.999 221.997V221.997Z" fill="#E1CEEC"/>
<path d="M502.053 176.086C505.367 176.086 508.054 173.399 508.054 170.085C508.054 166.771 505.367 164.084 502.053 164.084C498.739 164.084 496.053 166.771 496.053 170.085C496.053 173.399 498.739 176.086 502.053 176.086Z" fill="#CE7C54"/>
<path d="M502.053 205.911C505.367 205.911 508.054 203.224 508.054 199.91C508.054 196.596 505.367 193.909 502.053 193.909C498.739 193.909 496.053 196.596 496.053 199.91C496.053 203.224 498.739 205.911 502.053 205.911Z" fill="#CE7C54"/>
</g>
<g clip-path="url(#clip30_4397_23269)">
<path d="M553.997 221.997C544.184 221.997 534.773 218.099 527.834 211.16C520.895 204.221 516.997 194.81 516.997 184.997V147.997H590.997V184.997C590.997 194.81 587.099 204.221 580.16 211.16C573.221 218.099 563.81 221.997 553.997 221.997Z" fill="#FDB50B"/>
</g>
<g clip-path="url(#clip31_4397_23269)">
<path d="M590.997 259.003C590.997 249.19 587.099 239.779 580.16 232.84C573.221 225.901 563.81 222.003 553.997 222.003C544.184 222.003 534.773 225.901 527.834 232.84C520.895 239.779 516.997 249.19 516.997 259.003H590.997Z" fill="#450569"/>
</g>
<g clip-path="url(#clip32_4397_23269)">
<path d="M591.003 221.997V147.997H635.403V177.597C635.403 183.428 634.254 189.202 632.023 194.588C629.792 199.975 626.521 204.87 622.398 208.993C614.072 217.319 602.779 221.997 591.003 221.997V221.997Z" fill="#E1CEEC"/>
<path d="M650.058 176.086C653.372 176.086 656.058 173.399 656.058 170.085C656.058 166.771 653.372 164.084 650.058 164.084C646.744 164.084 644.057 166.771 644.057 170.085C644.057 173.399 646.744 176.086 650.058 176.086Z" fill="#CE7C54"/>
<path d="M650.058 205.911C653.372 205.911 656.058 203.224 656.058 199.91C656.058 196.596 653.372 193.909 650.058 193.909C646.744 193.909 644.057 196.596 644.057 199.91C644.057 203.224 646.744 205.911 650.058 205.911Z" fill="#CE7C54"/>
</g>
<g clip-path="url(#clip33_4397_23269)">
<path d="M702.001 221.997C692.188 221.997 682.777 218.099 675.839 211.16C668.9 204.221 665.001 194.81 665.001 184.997V147.997H739.001V184.997C739.001 194.81 735.103 204.221 728.164 211.16C721.226 218.099 711.814 221.997 702.001 221.997Z" fill="#FDB50B"/>
</g>
<g clip-path="url(#clip34_4397_23269)">
<path d="M739.001 259.003C739.001 249.19 735.103 239.779 728.164 232.84C721.226 225.901 711.814 222.003 702.001 222.003C692.188 222.003 682.777 225.901 675.839 232.84C668.9 239.779 665.001 249.19 665.001 259.003H739.001Z" fill="#450569"/>
</g>
</g>
<defs>
<clipPath id="clip0_4397_23269">
<rect width="740" height="416.25" fill="white" transform="translate(-1)"/>
</clipPath>
<clipPath id="clip1_4397_23269">
<rect width="74" height="74" fill="white" transform="translate(72.9985)"/>
</clipPath>
<clipPath id="clip2_4397_23269">
<rect width="74" height="74" fill="white" transform="translate(-1 73.9987)"/>
</clipPath>
<clipPath id="clip3_4397_23269">
<rect width="74" height="74" fill="white" transform="translate(72.9985 73.9987)"/>
</clipPath>
<clipPath id="clip4_4397_23269">
<rect width="74" height="74" fill="white" transform="translate(146.997)"/>
</clipPath>
<clipPath id="clip5_4397_23269">
<rect width="74" height="74" fill="white" transform="translate(221.003)"/>
</clipPath>
<clipPath id="clip6_4397_23269">
<rect width="74" height="74" fill="white" transform="translate(146.997 73.9987)"/>
</clipPath>
<clipPath id="clip7_4397_23269">
<rect width="74" height="74" fill="white" transform="translate(221.003 73.9987)"/>
</clipPath>
<clipPath id="clip8_4397_23269">
<rect width="74" height="74" fill="white" transform="translate(295.001)"/>
</clipPath>
<clipPath id="clip9_4397_23269">
<rect width="74" height="74" fill="white" transform="translate(369)"/>
</clipPath>
<clipPath id="clip10_4397_23269">
<rect width="74" height="74" fill="white" transform="translate(295.001 73.9987)"/>
</clipPath>
<clipPath id="clip11_4397_23269">
<rect width="74" height="74" fill="white" transform="translate(369 73.9987)"/>
</clipPath>
<clipPath id="clip12_4397_23269">
<rect width="74" height="74" fill="white" transform="translate(442.999)"/>
</clipPath>
<clipPath id="clip13_4397_23269">
<rect width="74" height="74" fill="white" transform="translate(516.997)"/>
</clipPath>
<clipPath id="clip14_4397_23269">
<rect width="74" height="74" fill="white" transform="translate(442.999 73.9987)"/>
</clipPath>
<clipPath id="clip15_4397_23269">
<rect width="74" height="74" fill="white" transform="translate(516.997 73.9987)"/>
</clipPath>
<clipPath id="clip16_4397_23269">
<rect width="74" height="74" fill="white" transform="translate(591.003)"/>
</clipPath>
<clipPath id="clip17_4397_23269">
<rect width="74" height="74" fill="white" transform="translate(665.001)"/>
</clipPath>
<clipPath id="clip18_4397_23269">
<rect width="74" height="74" fill="white" transform="translate(591.003 73.9987)"/>
</clipPath>
<clipPath id="clip19_4397_23269">
<rect width="74" height="74" fill="white" transform="translate(665.001 73.9987)"/>
</clipPath>
<clipPath id="clip20_4397_23269">
<rect width="74" height="74" fill="white" transform="translate(-1 147.997)"/>
</clipPath>
<clipPath id="clip21_4397_23269">
<rect width="74" height="74" fill="white" transform="translate(72.9985 147.997)"/>
</clipPath>
<clipPath id="clip22_4397_23269">
<rect width="74" height="74" fill="white" transform="translate(72.9985 222.003)"/>
</clipPath>
<clipPath id="clip23_4397_23269">
<rect width="74" height="74" fill="white" transform="translate(146.997 147.997)"/>
</clipPath>
<clipPath id="clip24_4397_23269">
<rect width="74" height="74" fill="white" transform="translate(221.003 147.997)"/>
</clipPath>
<clipPath id="clip25_4397_23269">
<rect width="74" height="74" fill="white" transform="translate(221.003 222.003)"/>
</clipPath>
<clipPath id="clip26_4397_23269">
<rect width="74" height="74" fill="white" transform="translate(295.001 147.997)"/>
</clipPath>
<clipPath id="clip27_4397_23269">
<rect width="74" height="74" fill="white" transform="translate(369 147.997)"/>
</clipPath>
<clipPath id="clip28_4397_23269">
<rect width="74" height="74" fill="white" transform="translate(369 222.003)"/>
</clipPath>
<clipPath id="clip29_4397_23269">
<rect width="74" height="74" fill="white" transform="translate(442.999 147.997)"/>
</clipPath>
<clipPath id="clip30_4397_23269">
<rect width="74" height="74" fill="white" transform="translate(516.997 147.997)"/>
</clipPath>
<clipPath id="clip31_4397_23269">
<rect width="74" height="74" fill="white" transform="translate(516.997 222.003)"/>
</clipPath>
<clipPath id="clip32_4397_23269">
<rect width="74" height="74" fill="white" transform="translate(591.003 147.997)"/>
</clipPath>
<clipPath id="clip33_4397_23269">
<rect width="74" height="74" fill="white" transform="translate(665.001 147.997)"/>
</clipPath>
<clipPath id="clip34_4397_23269">
<rect width="74" height="74" fill="white" transform="translate(665.001 222.003)"/>
</clipPath>
</defs>
</svg>
