<svg width="1247" height="1171" viewBox="0 0 1247 1171" fill="none" xmlns="http://www.w3.org/2000/svg">
<rect width="1246" height="1171" fill="#FAF2FF"/>
<path d="M0 947.414V858H74.7767V893.766C74.7767 900.811 72.8426 907.787 69.0845 914.296C65.3267 920.805 59.8188 926.719 52.875 931.701C38.8517 941.762 19.832 947.414 0 947.414Z" fill="#E1CEEC"/>
<path d="M99.4587 891.939C105.04 891.939 109.565 888.693 109.565 884.689C109.565 880.684 105.04 877.438 99.4587 877.438C93.8772 877.438 89.3525 880.684 89.3525 884.689C89.3525 888.693 93.8772 891.939 99.4587 891.939Z" fill="#CE7C54"/>
<path d="M99.4587 927.977C105.04 927.977 109.565 924.73 109.565 920.726C109.565 916.722 105.04 913.475 99.4587 913.475C93.8772 913.475 89.3525 916.722 89.3525 920.726C89.3525 924.73 93.8772 927.977 99.4587 927.977Z" fill="#CE7C54"/>
<path d="M186.94 947.414C170.413 947.414 154.562 942.704 142.876 934.32C131.19 925.936 124.625 914.564 124.625 902.707V858H249.254V902.707C249.254 914.564 242.687 925.936 231.001 934.32C219.316 942.704 203.466 947.414 186.94 947.414Z" fill="#FDB50B"/>
<path d="M124.628 1036.83C124.628 1024.97 118.063 1013.6 106.376 1005.21C94.6903 996.83 78.8405 992.12 62.3139 992.12C45.7872 992.12 29.9374 996.83 18.2513 1005.21C6.56519 1013.6 0 1024.97 0 1036.83H124.628Z" fill="#FEE6AE"/>
<path d="M249.254 992.12C249.254 980.263 242.687 968.891 231.001 960.507C219.316 952.123 203.466 947.413 186.94 947.413C170.413 947.413 154.562 952.123 142.876 960.507C131.19 968.891 124.625 980.263 124.625 992.12H249.254Z" fill="#450569"/>
<path d="M249.254 1036.83C249.254 1024.97 242.687 1013.6 231.001 1005.21C219.316 996.83 203.466 992.12 186.94 992.12C170.413 992.12 154.562 996.83 142.876 1005.21C131.19 1013.6 124.625 1024.97 124.625 1036.83H249.254Z" fill="#450569"/>
<path d="M249.251 947.414V858H324.028V893.766C324.028 900.811 322.094 907.787 318.337 914.296C314.578 920.805 309.071 926.719 302.127 931.701C288.103 941.762 269.084 947.414 249.251 947.414Z" fill="#E1CEEC"/>
<path d="M348.709 891.939C354.291 891.939 358.816 888.693 358.816 884.689C358.816 880.684 354.291 877.438 348.709 877.438C343.128 877.438 338.604 880.684 338.604 884.689C338.604 888.693 343.128 891.939 348.709 891.939Z" fill="#CE7C54"/>
<path d="M348.709 927.977C354.291 927.977 358.816 924.73 358.816 920.726C358.816 916.722 354.291 913.475 348.709 913.475C343.128 913.475 338.604 916.722 338.604 920.726C338.604 924.73 343.128 927.977 348.709 927.977Z" fill="#CE7C54"/>
<path d="M436.202 947.414C419.675 947.414 403.825 942.704 392.139 934.32C380.453 925.936 373.888 914.564 373.888 902.707V858H498.515V902.707C498.515 914.564 491.949 925.936 480.264 934.32C468.578 942.704 452.728 947.414 436.202 947.414Z" fill="#FDB50B"/>
<path d="M373.879 1036.83C373.879 1024.97 367.314 1013.6 355.628 1005.21C343.941 996.83 328.092 992.12 311.565 992.12C295.038 992.12 279.189 996.83 267.502 1005.21C255.818 1013.6 249.251 1024.97 249.251 1036.83H373.879Z" fill="#FEE6AE"/>
<path d="M498.515 992.12C498.515 980.263 491.949 968.891 480.264 960.507C468.578 952.123 452.728 947.413 436.202 947.413C419.675 947.413 403.825 952.123 392.139 960.507C380.453 968.891 373.888 980.263 373.888 992.12H498.515Z" fill="#450569"/>
<path d="M498.515 1036.83C498.515 1024.97 491.949 1013.6 480.264 1005.21C468.578 996.83 452.728 992.12 436.202 992.12C419.675 992.12 403.825 996.83 392.139 1005.21C380.453 1013.6 373.888 1024.97 373.888 1036.83H498.515Z" fill="#450569"/>
<path d="M498.514 947.414V858H573.29V893.766C573.29 900.811 571.357 907.787 567.6 914.296C563.841 920.805 558.333 926.719 551.39 931.701C537.366 941.762 518.346 947.414 498.514 947.414Z" fill="#E1CEEC"/>
<path d="M597.972 891.939C603.553 891.939 608.079 888.693 608.079 884.689C608.079 880.684 603.553 877.438 597.972 877.438C592.391 877.438 587.867 880.684 587.867 884.689C587.867 888.693 592.391 891.939 597.972 891.939Z" fill="#CE7C54"/>
<path d="M597.972 927.977C603.553 927.977 608.079 924.73 608.079 920.726C608.079 916.722 603.553 913.475 597.972 913.475C592.391 913.475 587.867 916.722 587.867 920.726C587.867 924.73 592.391 927.977 597.972 927.977Z" fill="#CE7C54"/>
<path d="M685.453 947.414C668.926 947.414 653.076 942.704 641.39 934.32C629.704 925.936 623.139 914.564 623.139 902.707V858H747.766V902.707C747.766 914.564 741.202 925.936 729.515 934.32C717.829 942.704 701.979 947.414 685.453 947.414Z" fill="#FDB50B"/>
<path d="M623.141 1036.83C623.141 1024.97 616.577 1013.6 604.89 1005.21C593.206 996.83 577.354 992.12 560.828 992.12C544.301 992.12 528.451 996.83 516.767 1005.21C505.08 1013.6 498.514 1024.97 498.514 1036.83H623.141Z" fill="#FEE6AE"/>
<path d="M747.766 992.12C747.766 980.263 741.202 968.891 729.515 960.507C717.829 952.123 701.979 947.413 685.453 947.413C668.926 947.413 653.076 952.123 641.39 960.507C629.704 968.891 623.139 980.263 623.139 992.12H747.766Z" fill="#450569"/>
<path d="M747.766 1036.83C747.766 1024.97 741.202 1013.6 729.515 1005.21C717.829 996.83 701.979 992.12 685.453 992.12C668.926 992.12 653.076 996.83 641.39 1005.21C629.704 1013.6 623.139 1024.97 623.139 1036.83H747.766Z" fill="#450569"/>
<path d="M747.765 947.414V858H822.541V893.766C822.541 900.811 820.606 907.787 816.849 914.296C813.09 920.805 807.583 926.719 800.639 931.701C786.615 941.762 767.596 947.414 747.765 947.414Z" fill="#E1CEEC"/>
<path d="M847.221 891.939C852.802 891.939 857.328 888.693 857.328 884.689C857.328 880.684 852.802 877.438 847.221 877.438C841.64 877.438 837.116 880.684 837.116 884.689C837.116 888.693 841.64 891.939 847.221 891.939Z" fill="#CE7C54"/>
<path d="M847.221 927.977C852.802 927.977 857.328 924.73 857.328 920.726C857.328 916.722 852.802 913.475 847.221 913.475C841.64 913.475 837.116 916.722 837.116 920.726C837.116 924.73 841.64 927.977 847.221 927.977Z" fill="#CE7C54"/>
<path d="M934.704 947.414C918.177 947.414 902.327 942.704 890.641 934.32C878.954 925.936 872.39 914.564 872.39 902.707V858H997.017V902.707C997.017 914.564 990.453 925.936 978.766 934.32C967.08 942.704 951.23 947.414 934.704 947.414Z" fill="#FDB50B"/>
<path d="M872.392 1036.83C872.392 1024.97 865.826 1013.6 854.14 1005.21C842.455 996.83 826.605 992.12 810.079 992.12C793.552 992.12 777.701 996.83 766.016 1005.21C754.33 1013.6 747.765 1024.97 747.765 1036.83H872.392Z" fill="#FEE6AE"/>
<path d="M997.017 992.12C997.017 980.263 990.453 968.891 978.766 960.507C967.08 952.123 951.23 947.413 934.704 947.413C918.177 947.413 902.327 952.123 890.641 960.507C878.954 968.891 872.39 980.263 872.39 992.12H997.017Z" fill="#450569"/>
<path d="M997.017 1036.83C997.017 1024.97 990.453 1013.6 978.766 1005.21C967.08 996.83 951.23 992.12 934.704 992.12C918.177 992.12 902.327 996.83 890.641 1005.21C878.954 1013.6 872.39 1024.97 872.39 1036.83H997.017Z" fill="#450569"/>
<path d="M997.026 947.414V858H1071.8V893.766C1071.8 900.811 1069.87 907.787 1066.11 914.296C1062.35 920.805 1056.84 926.719 1049.9 931.701C1035.88 941.762 1016.86 947.414 997.026 947.414Z" fill="#E1CEEC"/>
<path d="M1096.48 891.939C1102.07 891.939 1106.59 888.693 1106.59 884.689C1106.59 880.684 1102.07 877.438 1096.48 877.438C1090.9 877.438 1086.38 880.684 1086.38 884.689C1086.38 888.693 1090.9 891.939 1096.48 891.939Z" fill="#CE7C54"/>
<path d="M1096.48 927.977C1102.07 927.977 1106.59 924.73 1106.59 920.726C1106.59 916.722 1102.07 913.475 1096.48 913.475C1090.9 913.475 1086.38 916.722 1086.38 920.726C1086.38 924.73 1090.9 927.977 1096.48 927.977Z" fill="#CE7C54"/>
<path d="M1183.97 947.414C1167.44 947.414 1151.59 942.704 1139.9 934.32C1128.22 925.936 1121.65 914.564 1121.65 902.707V858H1246.28V902.707C1246.28 914.564 1239.71 925.936 1228.03 934.32C1216.34 942.704 1200.49 947.414 1183.97 947.414Z" fill="#FDB50B"/>
<path d="M1121.65 1036.83C1121.65 1024.97 1115.09 1013.6 1103.4 1005.21C1091.72 996.83 1075.87 992.12 1059.34 992.12C1042.81 992.12 1026.96 996.83 1015.28 1005.21C1003.59 1013.6 997.026 1024.97 997.026 1036.83H1121.65Z" fill="#FEE6AE"/>
<path d="M1246.28 992.12C1246.28 980.263 1239.71 968.891 1228.03 960.507C1216.34 952.123 1200.49 947.413 1183.97 947.413C1167.44 947.413 1151.59 952.123 1139.9 960.507C1128.22 968.891 1121.65 980.263 1121.65 992.12H1246.28Z" fill="#450569"/>
<path d="M1246.28 1036.83C1246.28 1024.97 1239.71 1013.6 1228.03 1005.21C1216.34 996.83 1200.49 992.12 1183.97 992.12C1167.44 992.12 1151.59 996.83 1139.9 1005.21C1128.22 1013.6 1121.65 1024.97 1121.65 1036.83H1246.28Z" fill="#450569"/>
<path d="M0 1126.24V1036.82H74.7767V1072.59C74.7767 1079.64 72.8426 1086.61 69.0845 1093.12C65.3267 1099.63 59.8188 1105.54 52.875 1110.53C38.8517 1120.59 19.832 1126.24 0 1126.24Z" fill="#E1CEEC"/>
<path d="M99.4587 1070.76C105.04 1070.76 109.565 1067.52 109.565 1063.51C109.565 1059.51 105.04 1056.26 99.4587 1056.26C93.8772 1056.26 89.3525 1059.51 89.3525 1063.51C89.3525 1067.52 93.8772 1070.76 99.4587 1070.76Z" fill="#CE7C54"/>
<path d="M99.4587 1106.8C105.04 1106.8 109.565 1103.56 109.565 1099.55C109.565 1095.55 105.04 1092.3 99.4587 1092.3C93.8772 1092.3 89.3525 1095.55 89.3525 1099.55C89.3525 1103.56 93.8772 1106.8 99.4587 1106.8Z" fill="#CE7C54"/>
<path d="M186.94 1126.24C170.413 1126.24 154.562 1121.53 142.876 1113.14C131.19 1104.76 124.625 1093.39 124.625 1081.53V1036.82H249.254V1081.53C249.254 1093.39 242.687 1104.76 231.001 1113.14C219.316 1121.53 203.466 1126.24 186.94 1126.24Z" fill="#FDB50B"/>
<path d="M249.254 1170.95C249.254 1159.1 242.687 1147.72 231.001 1139.34C219.316 1130.96 203.466 1126.25 186.94 1126.25C170.413 1126.25 154.562 1130.96 142.876 1139.34C131.19 1147.72 124.625 1159.1 124.625 1170.95H249.254Z" fill="#450569"/>
<path d="M249.251 1126.24V1036.82H324.028V1072.59C324.028 1079.64 322.094 1086.61 318.337 1093.12C314.578 1099.63 309.071 1105.54 302.127 1110.53C288.103 1120.59 269.084 1126.24 249.251 1126.24Z" fill="#E1CEEC"/>
<path d="M348.709 1070.76C354.291 1070.76 358.816 1067.52 358.816 1063.51C358.816 1059.51 354.291 1056.26 348.709 1056.26C343.128 1056.26 338.604 1059.51 338.604 1063.51C338.604 1067.52 343.128 1070.76 348.709 1070.76Z" fill="#CE7C54"/>
<path d="M348.709 1106.8C354.291 1106.8 358.816 1103.56 358.816 1099.55C358.816 1095.55 354.291 1092.3 348.709 1092.3C343.128 1092.3 338.604 1095.55 338.604 1099.55C338.604 1103.56 343.128 1106.8 348.709 1106.8Z" fill="#CE7C54"/>
<path d="M436.202 1126.24C419.675 1126.24 403.825 1121.53 392.139 1113.14C380.453 1104.76 373.888 1093.39 373.888 1081.53V1036.82H498.515V1081.53C498.515 1093.39 491.949 1104.76 480.264 1113.14C468.578 1121.53 452.728 1126.24 436.202 1126.24Z" fill="#FDB50B"/>
<path d="M498.515 1170.95C498.515 1159.1 491.949 1147.72 480.264 1139.34C468.578 1130.96 452.728 1126.25 436.202 1126.25C419.675 1126.25 403.825 1130.96 392.139 1139.34C380.453 1147.72 373.888 1159.1 373.888 1170.95H498.515Z" fill="#450569"/>
<path d="M498.514 1126.24V1036.82H573.29V1072.59C573.29 1079.64 571.357 1086.61 567.6 1093.12C563.841 1099.63 558.333 1105.54 551.39 1110.53C537.366 1120.59 518.346 1126.24 498.514 1126.24Z" fill="#E1CEEC"/>
<path d="M597.972 1070.76C603.553 1070.76 608.079 1067.52 608.079 1063.51C608.079 1059.51 603.553 1056.26 597.972 1056.26C592.391 1056.26 587.867 1059.51 587.867 1063.51C587.867 1067.52 592.391 1070.76 597.972 1070.76Z" fill="#CE7C54"/>
<path d="M597.972 1106.8C603.553 1106.8 608.079 1103.56 608.079 1099.55C608.079 1095.55 603.553 1092.3 597.972 1092.3C592.391 1092.3 587.867 1095.55 587.867 1099.55C587.867 1103.56 592.391 1106.8 597.972 1106.8Z" fill="#CE7C54"/>
<path d="M685.453 1126.24C668.926 1126.24 653.076 1121.53 641.39 1113.14C629.704 1104.76 623.139 1093.39 623.139 1081.53V1036.82H747.766V1081.53C747.766 1093.39 741.202 1104.76 729.515 1113.14C717.829 1121.53 701.979 1126.24 685.453 1126.24Z" fill="#FDB50B"/>
<path d="M747.766 1170.95C747.766 1159.1 741.202 1147.72 729.515 1139.34C717.829 1130.96 701.979 1126.25 685.453 1126.25C668.926 1126.25 653.076 1130.96 641.39 1139.34C629.704 1147.72 623.139 1159.1 623.139 1170.95H747.766Z" fill="#450569"/>
<path d="M747.765 1126.24V1036.82H822.541V1072.59C822.541 1079.64 820.606 1086.61 816.849 1093.12C813.09 1099.63 807.583 1105.54 800.639 1110.53C786.615 1120.59 767.596 1126.24 747.765 1126.24Z" fill="#E1CEEC"/>
<path d="M847.221 1070.76C852.802 1070.76 857.328 1067.52 857.328 1063.51C857.328 1059.51 852.802 1056.26 847.221 1056.26C841.64 1056.26 837.116 1059.51 837.116 1063.51C837.116 1067.52 841.64 1070.76 847.221 1070.76Z" fill="#CE7C54"/>
<path d="M847.221 1106.8C852.802 1106.8 857.328 1103.56 857.328 1099.55C857.328 1095.55 852.802 1092.3 847.221 1092.3C841.64 1092.3 837.116 1095.55 837.116 1099.55C837.116 1103.56 841.64 1106.8 847.221 1106.8Z" fill="#CE7C54"/>
<path d="M934.704 1126.24C918.177 1126.24 902.327 1121.53 890.641 1113.14C878.954 1104.76 872.39 1093.39 872.39 1081.53V1036.82H997.017V1081.53C997.017 1093.39 990.453 1104.76 978.766 1113.14C967.08 1121.53 951.23 1126.24 934.704 1126.24Z" fill="#FDB50B"/>
<path d="M997.017 1170.95C997.017 1159.1 990.453 1147.72 978.766 1139.34C967.08 1130.96 951.23 1126.25 934.704 1126.25C918.177 1126.25 902.327 1130.96 890.641 1139.34C878.954 1147.72 872.39 1159.1 872.39 1170.95H997.017Z" fill="#450569"/>
<path d="M997.026 1126.24V1036.82H1071.8V1072.59C1071.8 1079.64 1069.87 1086.61 1066.11 1093.12C1062.35 1099.63 1056.84 1105.54 1049.9 1110.53C1035.88 1120.59 1016.86 1126.24 997.026 1126.24Z" fill="#E1CEEC"/>
<path d="M1096.48 1070.76C1102.07 1070.76 1106.59 1067.52 1106.59 1063.51C1106.59 1059.51 1102.07 1056.26 1096.48 1056.26C1090.9 1056.26 1086.38 1059.51 1086.38 1063.51C1086.38 1067.52 1090.9 1070.76 1096.48 1070.76Z" fill="#CE7C54"/>
<path d="M1096.48 1106.8C1102.07 1106.8 1106.59 1103.56 1106.59 1099.55C1106.59 1095.55 1102.07 1092.3 1096.48 1092.3C1090.9 1092.3 1086.38 1095.55 1086.38 1099.55C1086.38 1103.56 1090.9 1106.8 1096.48 1106.8Z" fill="#CE7C54"/>
<path d="M1183.97 1126.24C1167.44 1126.24 1151.59 1121.53 1139.9 1113.14C1128.22 1104.76 1121.65 1093.39 1121.65 1081.53V1036.82H1246.28V1081.53C1246.28 1093.39 1239.71 1104.76 1228.03 1113.14C1216.34 1121.53 1200.49 1126.24 1183.97 1126.24Z" fill="#FDB50B"/>
<path d="M1246.28 1170.95C1246.28 1159.1 1239.71 1147.72 1228.03 1139.34C1216.34 1130.96 1200.49 1126.25 1183.97 1126.25C1167.44 1126.25 1151.59 1130.96 1139.9 1139.34C1128.22 1147.72 1121.65 1159.1 1121.65 1170.95H1246.28Z" fill="#450569"/>
</svg>
