<svg width="22" height="19" viewBox="0 0 22 19" fill="none" xmlns="http://www.w3.org/2000/svg">
<path d="M21.0344 4.28437L18.2031 7.10625C17.6406 13.6594 12.1094 18.75 5.50001 18.75C4.14063 18.75 3.01563 18.5344 2.16251 18.1125C1.47813 17.7656 1.19688 17.4 1.12188 17.2875C1.05983 17.1932 1.01984 17.0862 1.0049 16.9744C0.989964 16.8625 1.00046 16.7487 1.0356 16.6415C1.07074 16.5343 1.12963 16.4363 1.20788 16.355C1.28612 16.2737 1.3817 16.2111 1.48751 16.1719C1.50626 16.1625 3.71876 15.3187 5.15313 13.6969C4.26358 13.0635 3.48171 12.2911 2.83751 11.4094C1.55313 9.66562 0.193756 6.6375 1.00938 2.11875C1.03502 1.98441 1.09646 1.85949 1.18722 1.75718C1.27798 1.65487 1.39468 1.57897 1.52501 1.5375C1.65574 1.49469 1.79574 1.48866 1.92967 1.52008C2.0636 1.55149 2.18632 1.61914 2.28438 1.71562C2.31251 1.75312 5.43438 4.82812 9.25001 5.82187V5.25C9.25369 4.65535 9.37446 4.06725 9.60543 3.51928C9.8364 2.97132 10.173 2.47421 10.5961 2.05634C11.0192 1.63847 11.5205 1.30804 12.0713 1.08389C12.6221 0.85975 13.2116 0.746291 13.8063 0.749996C14.5867 0.761127 15.351 0.974229 16.0246 1.36854C16.6982 1.76285 17.2582 2.32492 17.65 3H20.5C20.6481 2.99953 20.793 3.04291 20.9164 3.12466C21.0399 3.20641 21.1364 3.32287 21.1938 3.45937C21.2478 3.5979 21.2615 3.74891 21.2333 3.8949C21.2051 4.0409 21.1361 4.17593 21.0344 4.28437Z" fill="white"/>
</svg>
